<?xml version="1.0" encoding="utf-8"?>
<!-- Generator: Adobe Illustrator 16.0.0, SVG Export Plug-In . SVG Version: 6.00 Build 0)  -->
<!DOCTYPE svg PUBLIC "-//W3C//DTD SVG 1.1//EN" "http://www.w3.org/Graphics/SVG/1.1/DTD/svg11.dtd">
<svg version="1.1" id="_xE162_" xmlns="http://www.w3.org/2000/svg" xmlns:xlink="http://www.w3.org/1999/xlink" x="0px" y="0px"
	 width="60px" height="60px" viewBox="0 0 60 60" enable-background="new 0 0 60 60" xml:space="preserve">
<g>
	<path fill="#CCCCCC" d="M39.525,2.581l0.424,0.425c0.252,0.315,0.33,0.74,0.236,1.275c-0.094,0.347-1.338,3.895-3.73,10.646
		c-2.391,6.751-3.619,10.237-3.682,10.458l14.164-0.047c0.754,0,1.266,0.276,1.533,0.826c0.268,0.551,0.182,1.109-0.26,1.676
		c-0.031,0-2.133,2.44-6.303,7.318c-4.17,4.879-8.373,9.797-12.605,14.754c-4.233,4.957-6.414,7.515-6.539,7.672
		c-0.377,0.473-0.787,0.708-1.228,0.708h-0.425l-0.425-0.377c-0.283-0.347-0.347-0.851-0.189-1.511
		c0.063-0.284,0.724-2.227,1.983-5.831c1.259-3.604,2.502-7.137,3.73-10.6l1.841-5.193H13.794c-0.724,0-1.212-0.298-1.463-0.896
		c-0.315-0.661-0.221-1.306,0.283-1.936c2.36-2.707,5.657-6.445,9.891-11.213c4.232-4.769,7.821-8.813,10.765-12.134
		c2.941-3.32,4.492-5.075,4.65-5.264c0.283-0.503,0.676-0.755,1.18-0.755H39.525z"/>
</g>
</svg>
