<?xml version="1.0" encoding="utf-8"?>
<!-- Generator: Adobe Illustrator 16.0.0, SVG Export Plug-In . SVG Version: 6.00 Build 0)  -->
<!DOCTYPE svg PUBLIC "-//W3C//DTD SVG 1.1//EN" "http://www.w3.org/Graphics/SVG/1.1/DTD/svg11.dtd">
<svg version="1.1" id="Layer_1" xmlns="http://www.w3.org/2000/svg" xmlns:xlink="http://www.w3.org/1999/xlink" x="0px" y="0px"
	 width="1024px" height="768px" viewBox="0 0 1024 768" enable-background="new 0 0 1024 768" xml:space="preserve">
<g>
	<g>
		<path fill="#0099FF" d="M134.839,109.315c-6.771,35.37-8.837,72.58,1.9,107.396c8.705,28.225,26.573,52.096,50.218,69.584
			c1.558,1.152,3.051-1.454,1.515-2.591c-23.483-17.368-40.591-41.043-49.209-68.989c-10.411-33.761-8.087-70.357-1.531-104.603
			C138.094,108.223,135.203,107.417,134.839,109.315L134.839,109.315z"/>
	</g>
</g>
<g>
	<g>
		<path fill="#0099FF" d="M145.769,127.374c-3.896-6.387-6.512-13.518-7.249-20.984c-0.15-1.52-1.899-2.003-2.795-0.757
			c-3.893,5.409-8.14,10.542-12.108,15.896c-1.153,1.556,1.453,3.05,2.591,1.514c3.967-5.354,8.214-10.485,12.108-15.896
			c-0.932-0.252-1.864-0.504-2.795-0.757c0.79,8.006,3.474,15.639,7.658,22.499C144.184,130.537,146.779,129.031,145.769,127.374
			L145.769,127.374z"/>
	</g>
</g>
</svg>
