<?xml version="1.0" encoding="utf-8"?>
<!-- Generator: Adobe Illustrator 16.0.0, SVG Export Plug-In . SVG Version: 6.00 Build 0)  -->
<!DOCTYPE svg PUBLIC "-//W3C//DTD SVG 1.1//EN" "http://www.w3.org/Graphics/SVG/1.1/DTD/svg11.dtd">
<svg version="1.1" id="Layer_1" xmlns="http://www.w3.org/2000/svg" xmlns:xlink="http://www.w3.org/1999/xlink" x="0px" y="0px"
	 width="1024px" height="768px" viewBox="0 0 1024 768" enable-background="new 0 0 1024 768" xml:space="preserve">
<g>
	<g>
		<g>
			<path fill="#0099FF" d="M288.781,226.475c-1.16,26.894,1.754,55.133,15.815,78.672c12.58,21.06,33.823,33.932,57.373,39.299
				c1.884,0.429,2.687-2.463,0.798-2.896c-23.029-5.25-43.063-17.563-55.581-37.921c-14.019-22.794-16.533-51.021-15.402-77.158
				C291.865,224.54,288.864,224.548,288.781,226.475L288.781,226.475z"/>
		</g>
	</g>
	<g>
		<g>
			<path fill="#0099FF" d="M300.101,237.4c-4.178-4.671-6.175-9.739-7.763-15.722c-0.313-1.185-2.167-1.561-2.741-0.358
				c-2.871,6.015-6.148,11.815-9.104,17.788c-0.854,1.728,1.733,3.249,2.591,1.515c2.954-5.973,6.231-11.774,9.104-17.789
				c-0.914-0.119-1.828-0.239-2.742-0.358c1.724,6.5,4.007,11.984,8.534,17.045C299.272,240.966,301.386,238.837,300.101,237.4
				L300.101,237.4z"/>
		</g>
	</g>
</g>
<g>
	<g>
		<g>
			<path fill="#0099FF" d="M116.848,355.87c33.272,76.087,111.702,114.41,189.745,128.044c18.37,3.207,37.001,5.115,55.646,5.583
				c1.933,0.049,2.066-2.948,0.131-2.997c-71.792-1.791-149.938-22.66-202.615-73.743c-17.113-16.595-30.707-36.462-40.251-58.285
				C118.728,352.698,116.076,354.104,116.848,355.87L116.848,355.87z"/>
		</g>
	</g>
	<g>
		<g>
			<path fill="#0099FF" d="M136.761,364.905c-6.887-2.927-13.13-7.306-18.045-12.962c-0.842-0.97-2.599-0.357-2.604,0.948
				c-0.029,6.665-0.51,13.309-0.632,19.97c-0.035,1.932,2.961,2.068,2.997,0.132c0.122-6.662,0.603-13.306,0.632-19.971
				c-0.869,0.316-1.736,0.632-2.605,0.948c5.263,6.058,11.967,10.659,19.333,13.79C137.622,368.518,138.524,365.655,136.761,364.905
				L136.761,364.905z"/>
		</g>
	</g>
</g>
</svg>
